<?xml version="1.0" standalone="no"?>
<!DOCTYPE svg PUBLIC "-//W3C//DTD SVG 1.1//EN" "http://www.w3.org/Graphics/SVG/1.1/DTD/svg11.dtd" >
<!--
2013-9-30: Created.
-->
<svg>
<metadata>
Created by iconfont
</metadata>
<defs>

<font id="iconfont" horiz-adv-x="1024" >
  <font-face
    font-family="iconfont"
    font-weight="500"
    font-stretch="normal"
    units-per-em="1024"
    ascent="896"
    descent="-128"
  />
    <missing-glyph />
    
    <glyph glyph-name="e_home" unicode="&#58881;" d="M56.888889 839.111111m56.888889 0l796.444444 0q56.888889 0 56.888889-56.888889l0-170.666666q0-56.888889-56.888889-56.888889l-796.444444 0q-56.888889 0-56.888889 56.888889l0 170.666666q0 56.888889 56.888889 56.888889ZM56.888889 440.888889m56.888889 0l170.666666 0q56.888889 0 56.888889-56.888889l0-398.222222q0-56.888889-56.888889-56.888889l-170.666666 0q-56.888889 0-56.888889 56.888889l0 398.222222q0 56.888889 56.888889 56.888889ZM455.111111 440.888889m56.888889 0l398.222222 0q56.888889 0 56.888889-56.888889l0-398.222222q0-56.888889-56.888889-56.888889l-398.222222 0q-56.888889 0-56.888889 56.888889l0 398.222222q0 56.888889 56.888889 56.888889Z"  horiz-adv-x="1024" />

    
    <glyph glyph-name="e_casculum" unicode="&#58883;" d="M84.764444 140.515556l284.444445-163.84A56.888889 56.888889 0 0 1 455.111111 25.031111V579.128889a56.888889 56.888889 0 0 1-27.875555 48.355555l-284.444445 163.84A56.888889 56.888889 0 0 1 56.888889 742.968889v-554.097778a56.888889 56.888889 0 0 1 27.875555-48.355555zM568.888889 579.128889v-554.097778a56.888889 56.888889 0 0 1 83.626667-48.355555l284.444444 163.84a56.888889 56.888889 0 0 1 27.875556 48.355555V742.968889a56.888889 56.888889 0 0 1-83.626667 48.355555l-284.444445-163.84a56.888889 56.888889 0 0 1-27.875555-48.355555z"  horiz-adv-x="1024" />

    
    <glyph glyph-name="e_data" unicode="&#58884;" d="M56.888889 384m39.253333 0l149.048889 0q39.253333 0 39.253333-39.253333l0-376.604445q0-39.253333-39.253333-39.253333l-149.048889 0q-39.253333 0-39.253333 39.253333l0 376.604445q0 39.253333 39.253333 39.253333ZM398.222222 839.111111m39.253334 0l149.048888 0q39.253333 0 39.253334-39.253333l0-831.715556q0-39.253333-39.253334-39.253333l-149.048888 0q-39.253333 0-39.253334 39.253333l0 831.715556q0 39.253333 39.253334 39.253333ZM739.555556 668.444444m39.253333 0l149.048889 0q39.253333 0 39.253333-39.253333l0-661.048889q0-39.253333-39.253333-39.253333l-149.048889 0q-39.253333 0-39.253333 39.253333l0 661.048889q0 39.253333 39.253333 39.253333Z"  horiz-adv-x="1024" />

    
    <glyph glyph-name="e_peer" unicode="&#58885;" d="M529.635556 839.111111a455.111111 455.111111 0 1 1 455.111111-455.111111 455.111111 455.111111 0 0 1-455.111111 455.111111z m276.48-654.791111a236.088889 236.088889 0 0 1-163.271112 137.102222 170.666667 170.666667 0 1 1-227.555555 0 236.088889 236.088889 0 0 1-163.271111-137.102222 341.333333 341.333333 0 1 0 552.391111 0z"  horiz-adv-x="1024" />

    
    <glyph glyph-name="e_set" unicode="&#58886;" d="M928.995556 459.662222l-28.444445 10.24a93.866667 93.866667 0 0 0-56.888889 52.906667 97.848889 97.848889 0 0 0 0 76.8l9.671111 27.306667a56.888889 56.888889 0 0 1-11.377777 64.284444l-29.582223 29.582222a56.888889 56.888889 0 0 1-64.284444 11.377778l-27.306667-12.515556a97.848889 97.848889 0 0 0-76.8 0 91.022222 91.022222 0 0 0-52.906666 56.888889l-6.257778 25.031111A56.888889 56.888889 0 0 1 533.048889 839.111111h-42.097778a56.888889 56.888889 0 0 1-54.044444-36.977778l-10.808889-28.444444a93.866667 93.866667 0 0 0-52.906667-56.888889 97.848889 97.848889 0 0 0-76.8 0l-27.306667 12.515556a56.888889 56.888889 0 0 1-64.284444-11.377778l-29.582222-29.582222a56.888889 56.888889 0 0 1-11.377778-64.284445l12.515556-27.306667a96.711111 96.711111 0 0 0-56.888889-129.706666l-28.444445-10.808889a56.888889 56.888889 0 0 1-34.133333-49.493333v-42.097778a56.888889 56.888889 0 0 1 38.115555-52.906667l28.444445-10.808889a93.866667 93.866667 0 0 0 56.888889-52.906666 97.848889 97.848889 0 0 0 0-76.8l-12.515556-27.306667a56.888889 56.888889 0 0 1 11.377778-64.284445l29.582222-29.582222a56.888889 56.888889 0 0 1 64.284445-11.377778l27.306666 12.515556a97.848889 97.848889 0 0 0 76.8 0 91.022222 91.022222 0 0 0 52.906667-56.888889l10.808889-28.444444a56.888889 56.888889 0 0 1 54.044444-36.977778h42.097778a56.888889 56.888889 0 0 1 54.044445 36.977778l10.808888 27.306666a97.28 97.28 0 0 0 129.706667 56.888889l27.306667-12.515555a56.888889 56.888889 0 0 1 64.284444 11.377777l29.582222 29.582223a56.888889 56.888889 0 0 1 11.377778 64.284444l-10.808889 27.875556a95.004444 95.004444 0 0 0 0 75.662222 96.711111 96.711111 0 0 0 56.888889 52.906667l28.444445 10.808888a56.888889 56.888889 0 0 1 28.444444 53.475556v42.097778a56.888889 56.888889 0 0 1-38.115555 54.044444z m-249.173334-108.088889A170.666667 170.666667 0 0 0 501.191111 213.333333 170.666667 170.666667 0 0 0 341.333333 373.76a170.666667 170.666667 0 0 0 290.133334 130.844444 170.666667 170.666667 0 0 0 48.355555-153.031111z"  horiz-adv-x="1024" />

    
    <glyph glyph-name="e_channel" unicode="&#58888;" d="M950.613333 668.444444l-134.826666 155.875556a42.097778 42.097778 0 0 1-31.857778 14.791111H219.022222a42.097778 42.097778 0 0 1-42.097778-42.097778v-314.026666a42.097778 42.097778 0 0 1 42.097778-42.097778h564.906667a42.097778 42.097778 0 0 1 31.857778 14.791111L950.613333 611.555556a42.097778 42.097778 0 0 1 0 56.888888zM804.977778 327.111111H240.071111a42.097778 42.097778 0 0 1-31.857778-14.791111L73.386667 156.444444a42.097778 42.097778 0 0 1 0-56.888888l134.826666-157.013334a42.097778 42.097778 0 0 1 31.857778-14.791111h564.906667a42.097778 42.097778 0 0 1 42.097778 42.097778v315.164444a42.097778 42.097778 0 0 1-42.097778 42.097778z"  horiz-adv-x="1024" />

    
    <glyph glyph-name="e_statement" unicode="&#58889;" d="M56.888889 839.111111m39.822222 0l659.911111 0q39.822222 0 39.822222-39.822222l0-147.911111q0-39.822222-39.822222-39.822222l-659.911111 0q-39.822222 0-39.822222 39.822222l0 147.911111q0 39.822222 39.822222 39.822222ZM227.555556 497.777778m39.822222 0l659.911111 0q39.822222 0 39.822222-39.822222l0-147.911112q0-39.822222-39.822222-39.822222l-659.911111 0q-39.822222 0-39.822222 39.822222l0 147.911112q0 39.822222 39.822222 39.822222ZM56.888889 156.444444m39.822222 0l659.911111 0q39.822222 0 39.822222-39.822222l0-147.911111q0-39.822222-39.822222-39.822222l-659.911111 0q-39.822222 0-39.822222 39.822222l0 147.911111q0 39.822222 39.822222 39.822222Z"  horiz-adv-x="1024" />

    
    <glyph glyph-name="e_qq" unicode="&#58897;" d="M949.475556 252.017778A348.728889 348.728889 0 0 1 853.333333 433.493333c11.377778 99.555556-30.151111 117.191111-30.151111 117.191111C812.373333 860.728889 543.288889 852.764444 542.151111 852.764444S271.36 860.728889 262.826667 550.684444c0 0-41.528889-17.635556-30.151111-117.191111a348.728889 348.728889 0 0 1-98.417778-181.475555s-10.24-184.888889 90.453333-22.755556a519.964444 519.964444 0 0 1 64.284445-117.191111s-74.524444-25.031111-67.697778-90.453333c0 0 0-72.817778 158.72-67.697778 0 0 113.777778 8.533333 147.342222 56.888889h30.151111c34.133333-47.786667 147.342222-56.888889 147.342222-56.888889 160.995556-5.12 158.72 67.697778 158.72 67.697778 6.257778 65.422222-67.697778 90.453333-67.697777 90.453333a519.395556 519.395556 0 0 1 64.284444 117.191111c99.555556-162.133333 89.315556 22.755556 89.315556 22.755556z"  horiz-adv-x="1024" />

    
    <glyph glyph-name="e_hint" unicode="&#58898;" d="M910.222222 832.284444H113.777778a56.888889 56.888889 0 0 1-56.888889-56.888888v-568.888889a56.888889 56.888889 0 0 1 56.888889-56.888889h163.84v-203.093334a10.808889 10.808889 0 0 1 17.635555-8.533333l284.444445 211.626667H910.222222a56.888889 56.888889 0 0 1 56.888889 56.888889v568.888889a56.888889 56.888889 0 0 1-56.888889 56.888888z"  horiz-adv-x="1024" />

    
    <glyph glyph-name="e_quit" unicode="&#58899;" d="M312.32 79.644444A79.644444 79.644444 0 0 0 227.555556 156.444444V607.573333a80.782222 80.782222 0 0 0 0 23.324445 83.626667 83.626667 0 0 0 85.333333 56.888889h341.333333c9.671111 0 12.515556 0 12.515556 11.946666V835.697778L654.222222 839.111111H220.728889c-12.515556 0-25.031111-2.844444-36.977778-6.257778A153.6 153.6 0 0 1 56.888889 708.835556a32.995556 32.995556 0 0 0 0-5.688889v-640c0-4.551111 0-9.102222 3.982222-13.653334A161.564444 161.564444 0 0 1 221.297778-71.111111H645.12c17.635556 0 17.635556 0 17.635556 15.928889v133.12h-21.617778zM954.026667 411.306667L853.333333 528.497778c-19.911111 22.755556-39.822222 45.511111-60.302222 68.266666a43.804444 43.804444 0 0 1-47.786667 11.377778 37.546667 37.546667 0 0 1-28.444444-37.546666v-83.626667c0-21.048889-6.826667-27.306667-29.582222-27.306667H378.311111v-152.462222h310.613333c18.773333 0 26.168889-6.826667 26.168889-24.462222v-85.333334a37.546667 37.546667 0 0 1 27.875556-38.115555 42.666667 42.666667 0 0 1 47.786667 13.084444l163.271111 183.751111a35.84 35.84 0 0 1 0 55.182223z"  horiz-adv-x="1024" />

    
    <glyph glyph-name="e_tel" unicode="&#58900;" d="M409.6 567.182222L313.457778 468.764444a531.342222 531.342222 0 0 1 280.462222-277.617777l83.626667 83.057777a1845.475556 1845.475556 0 0 0 241.777777-56.888888 98.986667 98.986667 0 0 0 45.511112-113.777778A224.142222 224.142222 0 0 0 756.053333-71.111111c-129.706667 0-320.284444 96.142222-455.111111 240.071111S40.96 497.777778 60.302222 651.946667A206.506667 206.506667 0 0 0 248.604444 839.111111a89.315556 89.315556 0 0 0 81.92-32.995555 1403.448889 1403.448889 0 0 0 79.075556-238.933334z"  horiz-adv-x="1024" />

    
    <glyph glyph-name="e_handdle" unicode="&#58901;" d="M398.222222 896h227.555556v-227.555556H398.222222zM398.222222 497.777778h227.555556v-227.555556H398.222222zM398.222222 99.555556h227.555556v-227.555556H398.222222z"  horiz-adv-x="1024" />

    
    <glyph glyph-name="e_add" unicode="&#58902;" d="M56.888889 384.568889v-47.217778h120.604444V431.217778H56.888889v-46.648889zM56.888889 782.222222h120.604444v-93.866666H56.888889zM328.817778 782.222222H967.111111v-93.866666H328.817778zM56.888889 79.644444h120.604444V-14.222222H56.888889zM321.422222 79.644444H967.111111V-14.222222H321.422222zM328.817778 384.568889v-47.217778H967.111111V431.217778H328.817778v-46.648889z"  horiz-adv-x="1024" />

    
    <glyph glyph-name="e_up" unicode="&#58903;" d="M684.373333 533.048889L512 774.826667 339.626667 533.048889H455.111111v-540.444445h113.777778v540.444445h115.484444z"  horiz-adv-x="1024" />

    
    <glyph glyph-name="e_down" unicode="&#58904;" d="M684.373333 234.382222L512-7.395556l-172.373333 241.777778H455.111111v540.444445h113.777778v-540.444445h115.484444z"  horiz-adv-x="1024" />

    
    <glyph glyph-name="e_explain" unicode="&#58905;" d="M504.035556 839.111111a455.111111 455.111111 0 1 1 455.111111-455.111111 455.111111 455.111111 0 0 1-455.111111 455.111111z m15.928888-701.44a35.271111 35.271111 0 0 0-26.168888-10.808889 34.133333 34.133333 0 0 0-25.6 10.808889 35.271111 35.271111 0 0 0-13.084445 25.6 35.84 35.84 0 0 0 10.808889 26.168889 34.702222 34.702222 0 0 0 25.6 10.808889 36.408889 36.408889 0 0 0 36.977778-36.977778 35.271111 35.271111 0 0 0-8.533334-25.6zM625.777778 467.057778a206.506667 206.506667 0 0 0-41.528889-52.337778q-19.911111-19.342222-32.426667-32.995556a145.066667 145.066667 0 0 1-19.342222-26.168888 83.057778 83.057778 0 0 1-9.102222-24.462223 150.186667 150.186667 0 0 1 0-28.444444q0-27.306667-25.031111-27.306667a27.306667 27.306667 0 0 0-17.635556 6.257778 26.168889 26.168889 0 0 0-7.395555 21.048889 148.48 148.48 0 0 0 10.24 59.733333 209.351111 209.351111 0 0 0 48.355555 64.853334l25.031111 25.031111a117.191111 117.191111 0 0 1 16.497778 21.048889 76.231111 76.231111 0 0 1 9.102222 21.617777 121.173333 121.173333 0 0 1 0 27.306667 67.128889 67.128889 0 0 1-21.617778 56.888889 85.902222 85.902222 0 0 1-56.888888 18.204444 101.831111 101.831111 0 0 1-31.857778-4.551111 83.057778 83.057778 0 0 1-25.6-13.084444 63.146667 63.146667 0 0 1-14.791111-25.031111 65.991111 65.991111 0 0 1-7.395556-27.875556 23.324444 23.324444 0 0 0-9.102222-18.204444 31.288889 31.288889 0 0 0-17.066667-5.688889q-23.893333 0-23.893333 22.755555a99.555556 99.555556 0 0 0 10.808889 46.648889 113.777778 113.777778 0 0 0 29.582222 36.408889A136.533333 136.533333 0 0 0 455.111111 632.604444a158.72 158.72 0 0 0 52.337778 8.533334 128 128 0 0 0 93.866667-29.582222 118.897778 118.897778 0 0 0 34.702222-91.591112 119.466667 119.466667 0 0 0-10.24-52.906666z"  horiz-adv-x="1024" />

    
    <glyph glyph-name="e_tools" unicode="&#58890;" d="M500.622222 839.111111c-250.311111 0-455.111111-204.8-455.111111-455.111111s204.8-455.111111 455.111111-455.111111 455.111111 204.8 455.111111 455.111111-204.8 455.111111-455.111111 455.111111z m301.511111-534.755555H489.244444c-28.444444 0-51.2 22.755556-51.2 51.2V674.133333c0 28.444444 22.755556 51.2 51.2 51.2s51.2-22.755556 51.2-51.2v-261.688889h261.688889c28.444444 0 51.2-22.755556 51.2-51.2s-22.755556-56.888889-51.2-56.888888z"  horiz-adv-x="1024" />

    
    <glyph glyph-name="e_timing" unicode="&#58891;" d="M915.2 780.8h-800c-44.8 0-80-35.2-80-80V96c0-44.8 35.2-80 80-80h796.8c44.8 0 80 35.2 80 80V700.8c3.2 44.8-32 80-76.8 80z m-16-624c0-28.8-22.4-54.4-54.4-54.4H185.6c-28.8 0-54.4 22.4-54.4 54.4V640c0 28.8 22.4 54.4 54.4 54.4h662.4c28.8 0 54.4-22.4 54.4-54.4v-483.2zM684.8 521.6l-124.8-124.8-67.2 67.2c-6.4 6.4-12.8 9.6-22.4 9.6-6.4 0-16-3.2-22.4-9.6L304 320c-12.8-12.8-12.8-32 0-41.6 12.8-12.8 32-12.8 41.6 0l124.8 124.8 67.2-67.2c12.8-12.8 32-12.8 41.6 0l147.2 147.2c12.8 12.8 12.8 32 0 41.6s-28.8 6.4-41.6-3.2z"  horiz-adv-x="1024" />

    
    <glyph glyph-name="e_collect" unicode="&#58892;" d="M905.6 784H115.2C67.2 784 32 745.6 32 700.8v-598.4c0-48 38.4-83.2 83.2-83.2h790.4c48 0 83.2 38.4 83.2 83.2V700.8c3.2 44.8-35.2 83.2-83.2 83.2zM896 163.2c0-28.8-22.4-51.2-51.2-51.2H179.2c-28.8 0-51.2 22.4-51.2 51.2V636.8c0 28.8 22.4 51.2 51.2 51.2h662.4c28.8 0 51.2-22.4 51.2-51.2v-473.6zM275.2 425.6c-16 0-28.8-12.8-28.8-28.8v-134.4c0-16 12.8-28.8 28.8-28.8s28.8 12.8 28.8 28.8v134.4c0 16-12.8 28.8-28.8 28.8zM435.2 505.6c-16 0-28.8-12.8-28.8-28.8v-214.4c0-16 12.8-28.8 28.8-28.8s28.8 12.8 28.8 28.8V480c0 16-12.8 25.6-28.8 25.6zM595.2 588.8c-16 0-28.8-12.8-28.8-28.8v-294.4c0-16 12.8-28.8 28.8-28.8s28.8 12.8 28.8 28.8v294.4c0 16-12.8 28.8-28.8 28.8zM755.2 460.8c-16 0-28.8-12.8-28.8-28.8v-169.6c0-16 12.8-28.8 28.8-28.8s28.8 12.8 28.8 28.8v169.6c0 16-12.8 28.8-28.8 28.8z"  horiz-adv-x="1024" />

    
    <glyph glyph-name="e_peers" unicode="&#58893;" d="M153.6 598.4c0 32 25.6 54.4 54.4 54.4h204.8v96H147.2c-48 0-89.6-41.6-89.6-89.6v-163.2h96V598.4zM899.2 748.8h-265.6v-96h204.8c32 0 54.4-25.6 54.4-54.4v-102.4h96V659.2c0 51.2-38.4 89.6-89.6 89.6zM153.6 134.4v102.4h-96v-163.2c0-48 41.6-89.6 89.6-89.6h265.6v96H208c-28.8 0-54.4 22.4-54.4 54.4zM892.8 134.4c0-32-25.6-54.4-54.4-54.4h-204.8v-96h265.6c48 0 89.6 41.6 89.6 89.6v163.2h-96v-102.4zM608 438.4c0 80-67.2 147.2-147.2 147.2-80 0-147.2-67.2-147.2-147.2 0-54.4 28.8-99.2 70.4-124.8-60.8-25.6-108.8-80-124.8-147.2-3.2-9.6 3.2-19.2 12.8-22.4h3.2c9.6 0 16 6.4 19.2 16 19.2 76.8 86.4 134.4 163.2 134.4h3.2c83.2 0 147.2 67.2 147.2 144z m-144-108.8c-60.8 0-108.8 48-108.8 108.8s48 108.8 108.8 108.8 108.8-48 108.8-108.8-48-108.8-108.8-108.8zM646.4 348.8c-9.6 0-19.2-9.6-16-19.2 0-9.6 9.6-16 19.2-16h3.2c60.8 3.2 108.8 54.4 108.8 115.2s-48 108.8-105.6 115.2c-9.6 0-19.2-6.4-19.2-16s6.4-19.2 16-19.2c41.6-3.2 73.6-38.4 73.6-80-6.4-44.8-38.4-80-80-80zM704 288c-6.4-9.6-3.2-19.2 6.4-25.6 12.8-6.4 25.6-28.8 28.8-44.8 3.2-9.6 9.6-16 19.2-16h3.2c9.6 3.2 16 9.6 16 22.4-6.4 22.4-22.4 54.4-44.8 67.2-12.8 6.4-22.4 3.2-28.8-3.2zM646.4 147.2h3.2c9.6 3.2 16 12.8 12.8 22.4-12.8 51.2-41.6 96-83.2 124.8l-9.6 6.4c-9.6 6.4-19.2 3.2-25.6-6.4-6.4-9.6-3.2-19.2 6.4-25.6l9.6-6.4c32-22.4 57.6-60.8 67.2-99.2 3.2-9.6 12.8-16 19.2-16z"  horiz-adv-x="1024" />

    
    <glyph glyph-name="e_close" unicode="&#58894;" d="M812.8 800L486.4 467.2 160 800c-12.8 12.8-38.4 12.8-51.2 0l-57.6-57.6c-19.2-19.2-19.2-38.4 0-57.6l326.4-326.4-326.4-326.4c-12.8-12.8-12.8-38.4 0-51.2l57.6-57.6c12.8-12.8 38.4-12.8 51.2 0l326.4 326.4 326.4-326.4c12.8-12.8 38.4-12.8 51.2 0l57.6 57.6c12.8 12.8 12.8 38.4 0 51.2L595.2 358.4l326.4 326.4c12.8 12.8 12.8 38.4 0 51.2l-57.6 57.6c-12.8 19.2-38.4 19.2-51.2 6.4z"  horiz-adv-x="1024" />

    
    <glyph glyph-name="e_reminder" unicode="&#58895;" d="M512 838.4C262.4 838.4 64 640 64 390.4s198.4-448 448-448 448 198.4 448 448-198.4 448-448 448z m-44.8-230.4c0 19.2 19.2 38.4 38.4 38.4s38.4-19.2 38.4-38.4v-281.6c0-19.2-19.2-38.4-38.4-38.4s-38.4 19.2-38.4 38.4V608z m38.4-473.6c-25.6 0-51.2 19.2-51.2 51.2 0 25.6 19.2 51.2 51.2 51.2 25.6 0 51.2-19.2 51.2-51.2s-19.2-51.2-51.2-51.2z"  horiz-adv-x="1024" />

    
    <glyph glyph-name="e_display" unicode="&#58896;" d="M921.6 793.6c-12.8 12.8-38.4 12.8-51.2 0L70.4-6.4c-12.8-12.8-12.8-38.4 0-51.2s38.4-12.8 51.2 0L921.6 736c12.8 12.8 12.8 38.4 0 57.6zM908.8 505.6c-12.8 12.8-38.4 12.8-51.2 0l-499.2-499.2c-12.8-12.8-12.8-38.4 0-51.2s38.4-12.8 51.2 0l499.2 499.2c12.8 12.8 12.8 38.4 0 51.2zM857.6 236.8l-230.4-230.4c-12.8-12.8-12.8-38.4 0-51.2s38.4-12.8 51.2 0l230.4 230.4c12.8 12.8 12.8 38.4 0 51.2s-38.4 19.2-51.2 0z"  horiz-adv-x="1024" />

    
    <glyph glyph-name="e_calender" unicode="&#58906;" d="M278.755556 685.511111c17.066667 0 34.133333 17.066667 34.133333 34.133333V799.288889c0 17.066667-17.066667 34.133333-34.133333 34.133333s-34.133333-17.066667-34.133334-34.133333v-79.644445c0-22.755556 11.377778-34.133333 34.133334-34.133333zM711.111111 685.511111c17.066667 0 34.133333 17.066667 34.133333 34.133333V799.288889c0 17.066667-17.066667 34.133333-34.133333 34.133333s-34.133333-17.066667-34.133333-34.133333v-79.644445c0-22.755556 11.377778-34.133333 34.133333-34.133333zM386.844444 679.822222h210.488889c17.066667 0 34.133333 17.066667 34.133334 34.133334s-17.066667 34.133333-34.133334 34.133333H386.844444c-17.066667 0-34.133333-17.066667-34.133333-34.133333s17.066667-34.133333 34.133333-34.133334zM819.2 748.088889c-17.066667 0-34.133333-17.066667-34.133333-34.133333s17.066667-34.133333 34.133333-34.133334c39.822222 0 68.266667-28.444444 68.266667-68.266666v-540.444445c0-34.133333-28.444444-68.266667-68.266667-68.266667H164.977778c-39.822222 0-68.266667 28.444444-68.266667 68.266667V617.244444c0 34.133333 28.444444 68.266667 68.266667 68.266667 17.066667 0 34.133333 17.066667 34.133333 34.133333s-17.066667 34.133333-34.133333 34.133334C91.022222 753.777778 28.444444 691.2 28.444444 622.933333v-540.444444c0-73.955556 62.577778-130.844444 136.533334-130.844445h654.222222c73.955556 0 136.533333 56.888889 136.533333 130.844445V617.244444c0 68.266667-62.577778 130.844444-136.533333 130.844445zM233.244444 372.622222h523.377778c17.066667 0 34.133333 17.066667 34.133334 34.133334 5.688889 17.066667-11.377778 34.133333-28.444445 34.133333H233.244444c-17.066667 0-34.133333-17.066667-34.133333-34.133333s17.066667-34.133333 34.133333-34.133334zM762.311111 292.977778H233.244444c-17.066667 0-34.133333-17.066667-34.133333-34.133334s17.066667-34.133333 34.133333-34.133333h523.377778c17.066667 0 34.133333 17.066667 34.133334 34.133333s-11.377778 34.133333-28.444445 34.133334z"  horiz-adv-x="1024" />

    


  </font>
</defs>
</svg>
